#!OML:ASF F:\twosubjects\two\wednesday\Session 1\rory1.ASF
:FULLY-SPECIFIED
:DEGREES
97
root 13.5575 18.7166 10.0713 -176.704 2.1459 -188.829
lowerback 2.05117 -1.67759 -11.7077
upperback 0.423253 -2.35922 -0.999043
thorax -0.270364 -1.12193 5.55779
lowerneck -11.5008 0.168363 -0.668377
upperneck 15.0948 1.25128 -3.54494
head 6.5108 0.393571 -0.89807
rclavicle -9.74045e-015 -2.84262e-014
rhumerus -64.2007 -35.8313 -40.4611
rradius 8.42161
rwrist 41.6887
rhand -13.5804 31.2931
rfingers 7.12502
rthumb 12.5336 1.68899
lclavicle -9.74045e-015 -2.84262e-014
lhumerus 26.9823 6.59059 82.7741
lradius 20.4013
lwrist 12.9159
lhand -16.9697 15.4091
lfingers 7.12502
lthumb 9.26461 45.1856
rfemur -58.1457 13.8736 -3.45438
rtibia 29.2714
rfoot -7.33816 -13.0617
rtoes 14.8475
lfemur 4.00014 -1.01472 -33.9882
ltibia 4.6641
lfoot -7.80373 3.94015
ltoes -9.99503
98
root 13.5618 18.7155 9.94682 -176.591 2.13621 -188.592
lowerback 2.12361 -1.79259 -11.4963
upperback 0.482572 -2.5236 -0.854574
thorax -0.222445 -1.21407 5.59433
lowerneck -11.8073 0.302958 -0.597891
upperneck 15.0526 1.42573 -3.61892
head 6.55436 0.467877 -0.91785
rclavicle -5.34234e-015 -1.43125e-014
rhumerus -64.567 -34.8754 -40.4952
rradius 8.11852
rwrist 40.8818
rhand -13.4908 31.1789
rfingers 7.12502
rthumb 12.62 1.58017
lclavicle -5.34234e-015 -1.43125e-014
lhumerus 28.7522 6.98655 82.4242
lradius 19.7842
lwrist 12.9472
lhand -17.4792 17.842
lfingers 7.12502
lthumb 8.77295 47.6397
rfemur -58.7408 13.8577 -3.25602
rtibia 28.8296
rfoot -5.4334 -13.4809
rtoes 6.30495
lfemur 6.75362 -0.996849 -33.6821
ltibia -1.74931e-014
lfoot -6.08032 4.17204
ltoes -10.6936
99
root 13.5658 18.702 9.81808 -176.621 2.25469 -188.591
lowerback 2.37561 -1.85902 -11.4925
upperback 0.46332 -2.65116 -0.790292
thorax -0.358827 -1.27104 5.6708
lowerneck -11.7444 0.44067 -0.618102
upperneck 14.8995 1.60837 -3.63919
head 6.49771 0.55425 -0.904415
rclavicle -2.15433e-014 2.64384e-014
rhumerus -65.2735 -33.6542 -40.4045
rradius 8.21209
rwrist 40.2365
rhand -13.6824 30.3844
rfingers 7.12502
rthumb 12.4353 0.774302
lclavicle -2.15433e-014 2.64384e-014
lhumerus 30.0843 7.31946 82.0205
lradius 19.5415
lwrist 13.3432
lhand -18.1076 18.3794
lfingers 7.12502
lthumb 8.16653 48.2016
rfemur -59.1766 13.9254 -3.22903
rtibia 28.5341
rfoot -6.06899 -13.8185
rtoes 8.04194
lfemur 7.23246 -0.833337 -33.698
ltibia -7.95139e-015
lfoot -6.49938 4.11045
ltoes -10.8564
100
root 13.5704 18.6905 9.68151 -176.794 2.61023 -188.631
lowerback 2.50472 -1.81951 -11.5073
upperback 0.579331 -2.60548 -0.796366
thorax -0.317218 -1.25408 5.67462
lowerneck -11.7174 0.531077 -0.518187
upperneck 14.7689 1.72734 -3.78135
head 6.45543 0.606427 -0.955543
rclavicle -4.16951e-014 -2.50469e-014
rhumerus -65.8207 -32.8801 -40.4909
rradius 8.16048
rwrist 39.4586
rhand -14.0958 29.5901
rfingers 7.12502
rthumb 12.0368 -0.0437857
lclavicle -4.16951e-014 -2.50469e-014
lhumerus 31.1538 7.44132 81.564
lradius 19.8986
lwrist 13.5866
lhand -18.3765 18.5061
lfingers 7.12502
lthumb 7.90693 48.3382
rfemur -59.5099 14.2412 -3.25779
rtibia 28.402
rfoot -6.889 -13.9917
rtoes 10.9369
lfemur 7.87175 -0.408568 -33.7724
ltibia -4.13472e-014
lfoot -6.9803 4.0383
ltoes -11.0433
101
root 13.5704 18.6819 9.53877 -176.943 2.99754 -188.617
lowerback 2.30818 -1.79202 -11.4321
upperback 0.883341 -2.5154 -0.7621
thorax 0.0951599 -1.24326 5.65347
lowerneck -11.8593 0.607503 -0.627096
upperneck 14.5295 1.83678 -3.82119
head 6.40551 0.646466 -0.940372
rclavicle 2.56184e-014 5.48646e-014
rhumerus -66.0383 -32.2639 -40.6197
rradius 7.97779
rwrist 38.4494
rhand -14.0409 29.2288
rfingers 7.12502
rthumb 12.0897 -0.401938
lclavicle 2.56184e-014 5.48646e-014
lhumerus 32.2917 7.27562 80.7779
lradius 20.4224
lwrist 13.8814
lhand -18.0187 18.8672
lfingers 7.12502
lthumb 8.2523 48.686
rfemur -59.8214 14.3701 -3.00516
rtibia 28.4882
rfoot -6.4826 -13.693
rtoes 8.73173
lfemur 8.50124 0.0439859 -33.7771
ltibia 3.18055e-014
lfoot -7.52878 3.89674
ltoes -9.4836
102
root 13.5834 18.6729 9.41718 -176.827 2.95333 -188.45
lowerback 2.31161 -1.89813 -11.3798
upperback 0.967373 -2.6582 -0.582005
thorax 0.213291 -1.32893 5.81232
lowerneck -11.8471 0.724057 -0.899011
upperneck 14.2425 2.00362 -3.71179
head 6.31189 0.721522 -0.846098
rclavicle 8.4235e-015 -2.76311e-014
rhumerus -66.4384 -31.3279 -40.5486
rradius 8.03363
rwrist 37.5922
rhand -14.0712 28.8315
rfingers 7.12502
rthumb 12.0604 -0.800943
lclavicle 8.4235e-015 -2.76311e-014
lhumerus 33.3932 7.53299 80.2599
lradius 20.7344
lwrist 13.8491
lhand -17.1518 19.1476
lfingers 7.12502
lthumb 9.08891 48.9317
rfemur -60.2368 14.2878 -2.68944
rtibia 28.7326
rfoot -5.63883 -13.5059
rtoes 6.48073
lfemur 8.8127 0.0203712 -33.5397
ltibia 6.36111e-015
lfoot -7.83726 3.8322
ltoes -8.30836
103
root 13.5938 18.6658 9.28418 -176.807 3.02572 -188.287
lowerback 2.45393 -1.92318 -11.1932
upperback 0.888603 -2.71784 -0.543732
thorax 0.0534416 -1.34883 5.75648
lowerneck -11.4777 0.810077 -0.862299
upperneck 14.0169 2.0791 -3.62503
head 6.17678 0.773936 -0.81925
rclavicle 8.92046e-015 -2.52457e-014
rhumerus -67.1606 -30.4344 -40.4789
rradius 7.97573
rwrist 36.939
rhand -14.6331 28.6984
rfingers 7.12502
rthumb 11.5186 -0.965073
lclavicle 8.92046e-015 -2.52457e-014
lhumerus 34.332 7.90115 79.9828
lradius 20.8341
lwrist 14.0995
lhand -17.6498 19.613
lfingers 7.12502
lthumb 8.60831 49.4175
rfemur -60.5504 14.5178 -2.56854
rtibia 29.0915
rfoot -5.05505 -13.3639
rtoes 8.13287
lfemur 9.2657 0.135884 -33.3616
ltibia 9.54166e-015
lfoot -8.01626 3.83599
ltoes -8.2399
104
root 13.5978 18.6595 9.14973 -176.854 3.08369 -188.401
lowerback 2.60762 -1.97981 -11.2145
upperback 0.869034 -2.81132 -0.610874
thorax -0.0386461 -1.38747 5.70506
lowerneck -11.2879 0.859355 -0.670577
upperneck 13.9402 2.13006 -3.76782
head 6.12384 0.802047 -0.892233
rclavicle 1.15047e-014 -3.20043e-014
rhumerus -67.6679 -29.6513 -40.5595
rradius 7.80752
rwrist 36.1456
rhand -15.1436 28.2161
rfingers 7.12502
rthumb 11.0263 -1.47431
lclavicle 1.15047e-014 -3.20043e-014
lhumerus 35.1754 7.89165 79.3322
lradius 21.0766
lwrist 15.2268
lhand -19.3369 20.1383
lfingers 7.12502
lthumb 6.97991 50.0032
rfemur -60.7397 14.6896 -2.78294
rtibia 29.4558
rfoot -6.34284 -13.1558
rtoes 15.0805
lfemur 9.79052 0.238599 -33.5111
ltibia -2.06736e-014
lfoot -8.19293 3.85651
ltoes -7.67183
105
root 13.6008 18.6513 9.02313 -176.856 2.87944 -188.646
lowerback 2.74147 -2.10341 -11.4153
upperback 0.927691 -2.98765 -0.636599
thorax -0.0101844 -1.4767 5.79495
lowerneck -11.3228 0.867386 -0.530622
upperneck 13.9441 2.16212 -4.02433
head 6.13612 0.806026 -0.993505
rclavicle -8.62228e-015 -2.60408e-014
rhumerus -68.1169 -28.9369 -40.5518
rradius 7.85156
rwrist 35.3058
rhand -15.3821 27.6778
rfingers 7.12502
rthumb 10.7962 -2.02476
lclavicle -8.62228e-015 -2.60408e-014
lhumerus 35.908 7.58478 78.4214
lradius 21.5644
lwrist 16.2028
lhand -19.4725 19.8705
lfingers 7.12502
lthumb 6.84906 49.7397
rfemur -60.7288 14.4396 -2.89592
rtibia 29.7914
rfoot -4.71011 -12.5617
rtoes 11.3813
lfemur 10.2371 0.0706467 -33.8077
ltibia 6.36111e-015
lfoot -8.42317 3.90513
ltoes -7.83247
106
root 13.6109 18.633 8.89521 -176.851 2.62609 -188.616
lowerback 2.89404 -2.1776 -11.3508
upperback 0.972656 -3.1013 -0.616001
thorax -0.0301653 -1.53375 5.78711
lowerneck -11.1525 0.858864 -0.583006
upperneck 13.8188 2.1375 -3.95379
head 6.06535 0.800178 -0.965313
rclavicle 2.98177e-016 -1.21259e-014
rhumerus -68.5091 -28.6176 -40.5795
rradius 7.61609
rwrist 34.5968
rhand -15.7717 27.7353
rfingers 7.12502
rthumb 10.4204 -1.98644
lclavicle 2.98177e-016 -1.21259e-014
lhumerus 36.5697 7.27285 77.7055
lradius 22.0907
lwrist 16.6014
lhand -19.0231 19.0955
lfingers 7.12502
lthumb 7.28285 48.9501
rfemur -60.6495 14.5345 -2.99687
rtibia 29.981
rfoot -4.3183 -12.4112
rtoes 11.2891
lfemur 10.6851 -0.132123 -33.7764
ltibia -1.59028e-015
lfoot -8.64221 3.94108
ltoes -8.33961
107
root 13.6211 18.6043 8.74842 -176.905 2.83062 -188.38
lowerback 2.8769 -2.14203 -11.0943
upperback 1.0302 -3.04659 -0.543322
thorax 0.0192086 -1.51374 5.71802
lowerneck -10.963 0.890283 -0.698616
upperneck 13.7041 2.16859 -3.81875
head 5.99447 0.823237 -0.901775
rclavicle -4.60435e-014 -4.77083e-015
rhumerus -68.7182 -28.2647 -40.685
rradius 7.27999
rwrist 33.9257
rhand -15.8835 27.3053
rfingers 7.12502
rthumb 10.3125 -2.42186
lclavicle -4.60435e-014 -4.77083e-015
lhumerus 37.2025 7.42101 77.4296
lradius 22.5373
lwrist 16.7797
lhand -19.1062 19.4446
lfingers 7.12502
lthumb 7.20262 49.302
rfemur -60.4777 15.1415 -2.96144
rtibia 29.9611
rfoot -5.1923 -12.1202
rtoes 14.7291
lfemur 11.2461 0.133464 -33.5363
ltibia -3.02153e-014
lfoot -8.87144 4.04054
ltoes -9.25363
